# This file uses centimeters as units for non-parametric coordinates.

mtllib windmill_base.mtl
g default
v 19.283123 27.629261 21.699454
v 5.272250 27.629261 28.330468
v 5.316343 -0.032325 28.577880
v 19.501953 -0.032325 21.931389
v 28.406872 -0.032325 9.042843
v 28.170555 27.629261 8.957316
v 23.097154 -0.032325 -20.751117
v 22.904935 27.629258 -20.589224
v 29.496229 27.629261 -6.521411
v 29.743642 -0.032325 -6.565505
v 10.248318 -0.032325 -29.712967
v 10.162796 27.629264 -29.476662
v -5.360030 -0.032325 -31.049743
v -19.545647 -0.032325 -24.403248
v -19.383753 27.629261 -24.211029
v -5.306860 27.617331 -30.801700
v -28.507489 -0.032325 -11.554411
v -28.271181 27.629264 -11.468891
v -29.844266 -0.032325 4.053934
v -29.596850 27.629258 4.009844
v -23.197773 -0.032325 18.239544
v -23.005554 27.629261 18.077653
v -10.263420 27.629261 26.965080
v -10.348938 -0.032325 27.201391
v -23.797117 28.574310 18.744323
v -10.615598 28.574310 27.938209
v 5.396886 28.574310 29.309600
v -0.050311 40.626241 -1.255786
v 29.143690 28.574310 9.309493
v 19.949795 28.574310 22.491020
v 23.696495 28.574310 -21.255893
v 30.515074 28.574310 -6.702984
v -5.497513 28.574314 -31.821176
v 10.514971 28.574314 -30.449801
v -29.244313 28.574314 -11.821066
v -20.050421 28.574314 -25.002585
v -30.615698 28.574310 4.191414
v -10.615598 27.629261 27.938209
v 5.396886 27.629261 29.309600
v 19.949795 27.629261 22.491020
v 29.143690 27.629261 9.309493
v 30.515074 27.629261 -6.702984
v 23.696495 27.629261 -21.255893
v 10.514971 27.629264 -30.449801
v -5.497513 27.629261 -31.821176
v -20.050421 27.629261 -25.002585
v -29.244313 27.629264 -11.821066
v -30.615695 27.629261 4.191416
v -23.797117 27.629261 18.744323
v 29.422128 -0.032325 -3.253869
v 29.484016 0.285177 -3.784404
v 28.768714 0.270967 5.690478
v 28.548021 21.308955 5.687521
v 28.824943 -0.032325 5.324219
v 27.274890 21.247952 5.513978
v 28.001441 21.261488 -3.988166
v 29.274571 21.322494 -3.814622
v 27.497873 0.263444 5.489789
v 28.210889 0.113700 -3.957944
v 1.966540 12.746635 28.175284
v -7.384100 12.667170 27.355358
v 1.826779 21.939491 28.064851
v -7.487547 21.938351 27.246461
v 2.102345 12.729781 26.628981
v -7.248297 12.650317 25.809052
v 1.962583 21.922632 26.518542
v -7.261375 21.921504 25.708091
vt 0.749570 0.992086
vt 0.663615 0.992106
vt 0.663103 0.838537
vt 0.749699 0.838459
vt 0.834160 0.838374
vt 0.833914 0.992131
vt 0.992184 0.838605
vt 0.991858 0.992230
vt 0.913889 0.992169
vt 0.913458 0.838486
vt 0.005309 0.839213
vt 0.085576 0.839211
vt 0.085696 0.992290
vt 0.005760 0.992292
vt 0.169913 0.839206
vt 0.256291 0.839167
vt 0.256296 0.992245
vt 0.169948 0.992218
vt 0.340636 0.839107
vt 0.340554 0.992185
vt 0.420719 0.839088
vt 0.420656 0.992167
vt 0.498542 0.838685
vt 0.498605 0.992309
vt 0.579031 0.992183
vt 0.578264 0.838647
vt 0.333322 0.563392
vt 0.348286 0.647155
vt 0.318752 0.727638
vt 0.182504 0.635674
vt 0.167934 0.796621
vt 0.252597 0.781840
vt 0.031685 0.702178
vt 0.086815 0.767880
vt 0.046255 0.538770
vt 0.016722 0.618414
vt 0.197074 0.469787
vt 0.112411 0.484549
vt 0.278193 0.498528
vt 0.757535 0.825526
vt 0.678534 0.825526
vt 0.678534 0.819200
vt 0.757535 0.819200
vt 0.838969 0.819200
vt 0.838969 0.825526
vt 0.921615 0.825526
vt 0.921615 0.819200
vt 0.006416 0.825526
vt 0.006416 0.819200
vt 0.085418 0.819200
vt 0.085418 0.825526
vt 0.159559 0.825526
vt 0.159559 0.819200
vt 0.233697 0.819200
vt 0.233697 0.825526
vt 0.310266 0.825526
vt 0.310266 0.819200
vt 0.388052 0.819200
vt 0.388052 0.825526
vt 0.463409 0.825526
vt 0.463409 0.819200
vt 0.536331 0.819200
vt 0.536331 0.825526
vt 0.605612 0.825526
vt 0.605612 0.819200
vt 0.330323 0.733249
vt 0.325386 0.729713
vt 0.355628 0.646574
vt 0.361027 0.647516
vt 0.260239 0.792477
vt 0.257276 0.787481
vt 0.169389 0.809675
vt 0.169641 0.803456
vt 0.082464 0.778447
vt 0.085881 0.773691
vt 0.022472 0.709046
vt 0.028073 0.706455
vt 0.005891 0.619527
vt 0.011857 0.619695
vt 0.036596 0.533793
vt 0.106675 0.474585
vt 0.109227 0.479489
vt 0.041113 0.537276
vt 0.197526 0.457387
vt 0.197277 0.463586
vt 0.284451 0.488615
vt 0.281033 0.493370
vt 0.344443 0.558016
vt 0.338842 0.560607
vt 0.896447 0.838280
vt 0.896393 0.840015
vt 0.853637 0.839885
vt 0.852910 0.956514
vt 0.860617 0.831457
vt 0.890097 0.831341
vt 0.890075 0.833171
vt 0.860774 0.833203
vt 0.870941 0.910040
vt 0.870848 0.954274
vt 0.863910 0.954391
vt 0.864006 0.910255
vt 0.860672 0.839817
vt 0.859752 0.955956
vt 0.860725 0.839435
vt 0.889901 0.839448
vt 0.890012 0.956038
vt 0.890017 0.840171
vt 0.897126 0.956621
vt 0.853673 0.838349
vt 0.645193 0.909503
vt 0.594263 0.909052
vt 0.644825 0.960546
vt 0.594276 0.960511
vt 0.621597 0.957560
vt 0.614346 0.958145
vt 0.614738 0.911843
vt 0.621989 0.911257
vt 0.636651 0.959282
vt 0.637083 0.910556
vt 0.605363 0.957358
vt 0.605383 0.911295
vt 0.612619 0.912390
vt 0.612599 0.958006
vt 0.602038 0.910102
vt 0.602535 0.959400
vt 0.070005 0.481680
vt 0.011943 0.481680
vt 0.012171 0.368212
vt 0.070005 0.367941
vt 0.152739 0.449736
vt 0.103712 0.449199
vt 0.102938 0.402921
vt 0.153254 0.403447
vn 0.645741 0.010298 0.763487
vn 0.086027 0.008812 0.996254
vn 0.086045 0.009455 0.996246
vn 0.645741 0.010298 0.763487
vn 0.645741 0.010298 0.763487
vn 0.645741 0.010298 0.763487
vn 0.962893 0.023593 0.268850
vn 0.965809 0.009682 0.259072
vn 0.764835 0.009085 -0.644162
vn 0.764835 0.009085 -0.644162
vn 0.996403 0.009193 -0.084238
vn 0.996841 -0.004970 -0.079266
vn 0.764835 0.009085 -0.644162
vn 0.340286 0.009084 -0.940278
vn 0.340286 0.009084 -0.940278
vn 0.764835 0.009085 -0.644162
vn -0.175371 0.009127 -0.984460
vn -0.644106 0.009127 -0.764882
vn -0.644106 0.009127 -0.764882
vn -0.175371 0.009127 -0.984460
vn -0.644106 0.009127 -0.764882
vn -0.644106 0.009127 -0.764882
vn -0.940278 0.009085 -0.340286
vn -0.940278 0.009085 -0.340286
vn -0.940278 0.009085 -0.340286
vn -0.984448 0.009085 0.175443
vn -0.984448 0.009085 0.175443
vn -0.940278 0.009085 -0.340286
vn -0.984448 0.009085 0.175443
vn -0.984448 0.009085 0.175443
vn -0.764835 0.009085 0.644162
vn -0.764835 0.009085 0.644162
vn -0.256518 0.008445 0.966503
vn -0.764835 0.009085 0.644162
vn -0.764835 0.009085 0.644162
vn -0.256500 0.009087 0.966502
vn -0.618158 0.588921 0.520627
vn -0.315257 0.376516 0.871119
vn 0.141797 0.588921 0.795655
vn 0.000000 1.000000 0.000000
vn 0.759956 0.588920 0.275027
vn 0.000000 1.000000 0.000000
vn 0.141797 0.588921 0.795655
vn 0.596783 0.376516 0.708580
vn 0.618159 0.588920 -0.520627
vn 0.000000 1.000000 0.000000
vn 0.759956 0.588920 0.275027
vn 0.912040 0.376516 -0.162539
vn -0.141797 0.588920 -0.795655
vn 0.000000 1.000000 0.000000
vn 0.618159 0.588920 -0.520627
vn 0.315258 0.376516 -0.871119
vn -0.759956 0.588920 -0.275027
vn 0.000000 1.000000 0.000000
vn -0.141797 0.588920 -0.795655
vn -0.596783 0.376516 -0.708580
vn -0.618158 0.588921 0.520627
vn 0.000000 1.000000 0.000000
vn -0.759956 0.588920 -0.275027
vn -0.912040 0.376516 0.162539
vn 0.141797 0.588921 0.795655
vn -0.315257 0.376516 0.871119
vn -0.340300 0.000000 0.940317
vn 0.175450 0.000000 0.984488
vn 0.141797 0.588921 0.795655
vn 0.175450 0.000000 0.984488
vn 0.644188 0.000000 0.764867
vn 0.596783 0.376516 0.708580
vn 0.759956 0.588920 0.275027
vn 0.596783 0.376516 0.708580
vn 0.644188 0.000000 0.764867
vn 0.940317 0.000000 0.340300
vn 0.759956 0.588920 0.275027
vn 0.940317 0.000000 0.340300
vn 0.984488 0.000000 -0.175450
vn 0.912040 0.376516 -0.162539
vn 0.618159 0.588920 -0.520627
vn 0.912040 0.376516 -0.162539
vn 0.984488 0.000000 -0.175450
vn 0.764868 0.000000 -0.644187
vn 0.618159 0.588920 -0.520627
vn 0.764868 0.000000 -0.644187
vn 0.340301 0.000000 -0.940317
vn 0.315258 0.376516 -0.871119
vn -0.141797 0.588920 -0.795655
vn 0.315258 0.376516 -0.871119
vn 0.340301 0.000000 -0.940317
vn -0.175451 0.000000 -0.984488
vn -0.141797 0.588920 -0.795655
vn -0.175451 0.000000 -0.984488
vn -0.644189 0.000000 -0.764866
vn -0.596783 0.376516 -0.708580
vn -0.759956 0.588920 -0.275027
vn -0.596783 0.376516 -0.708580
vn -0.644189 0.000000 -0.764866
vn -0.940317 -0.000001 -0.340299
vn -0.759956 0.588920 -0.275027
vn -0.940317 -0.000001 -0.340299
vn -0.984488 0.000000 0.175450
vn -0.912040 0.376516 0.162539
vn -0.618158 0.588921 0.520627
vn -0.912040 0.376516 0.162539
vn -0.984488 0.000000 0.175450
vn -0.764867 0.000001 0.644188
vn -0.618158 0.588921 0.520627
vn -0.764867 0.000001 0.644188
vn -0.340300 0.000000 0.940317
vn -0.315257 0.376516 0.871119
vn 0.000000 -1.000000 0.000000
vn 0.000000 -1.000000 0.000000
vn 0.000000 -1.000000 0.000000
vn 0.000000 -1.000000 0.000000
vn 0.000000 -1.000000 0.000000
vn -0.000001 -1.000000 0.000001
vn -0.000001 -1.000000 0.000001
vn 0.000000 -1.000000 0.000000
vn -0.000001 -1.000000 0.000000
vn -0.000001 -1.000000 0.000000
vn -0.000001 -1.000000 0.000001
vn -0.000001 -1.000000 0.000001
vn -0.000001 -1.000000 0.000000
vn -0.000001 -1.000000 0.000000
vn -0.000001 -1.000000 0.000000
vn -0.000001 -1.000000 0.000000
vn -0.001433 -0.999996 -0.002615
vn -0.001433 -0.999996 -0.002615
vn -0.000001 -1.000000 0.000000
vn -0.000001 -1.000000 0.000000
vn -0.001433 -0.999996 -0.002615
vn -0.000990 -0.999984 -0.005575
vn -0.000990 -0.999984 -0.005575
vn -0.001433 -0.999996 -0.002615
vn 0.000443 -0.999996 -0.002960
vn 0.000001 -1.000000 -0.000001
vn 0.000001 -1.000000 -0.000001
vn 0.000443 -0.999996 -0.002960
vn 0.000001 -1.000000 0.000000
vn 0.000001 -1.000000 0.000000
vn 0.000001 -1.000000 -0.000001
vn 0.000001 -1.000000 -0.000001
vn 0.000001 -1.000000 0.000000
vn 0.000000 -1.000000 0.000000
vn 0.000000 -1.000000 0.000000
vn 0.000001 -1.000000 0.000000
vn 0.000000 -1.000000 0.000000
vn 0.000000 -1.000000 0.000000
vn 0.000000 -1.000000 0.000000
vn 0.000000 -1.000000 0.000000
vn 0.000000 -1.000000 0.000000
vn 0.000000 -1.000000 0.000000
vn 0.000000 -1.000000 0.000000
vn 0.000000 -1.000000 0.000000
vn 0.000443 -0.999996 -0.002960
vn 0.000443 -0.999996 -0.002960
vn -0.000990 -0.999984 -0.005575
vn -0.000990 -0.999984 -0.005575
vn -0.175371 0.009127 -0.984460
vn -0.175371 0.009127 -0.984460
vn 0.340286 0.009084 -0.940278
vn 0.340286 0.009084 -0.940278
vn 0.996354 -0.011215 0.084573
vn 0.996841 -0.004970 -0.079266
vn 0.996034 -0.004373 0.088868
vn 0.962893 0.023593 0.268850
vn 0.995162 0.022968 0.095530
vn 0.995704 0.009084 0.092143
vn 0.965809 0.009682 0.259072
vn 0.995308 0.029693 0.092086
vn 0.996354 -0.011215 0.084573
vn 0.996034 -0.004373 0.088868
vn 0.995162 0.022968 0.095530
vn 0.047561 -0.998866 0.002213
vn 0.047561 -0.998866 0.002213
vn 0.047561 -0.998866 0.002213
vn 0.047561 -0.998866 0.002213
vn 0.054405 0.705337 -0.706781
vn 0.054405 0.705337 -0.706781
vn 0.145486 0.002036 -0.989358
vn 0.145486 0.002036 -0.989358
vn 0.054405 0.705337 -0.706781
vn 0.054405 0.705337 -0.706781
vn -0.068382 0.997583 -0.012307
vn -0.068382 0.997583 -0.012307
vn -0.135069 0.000078 0.990836
vn -0.135069 0.000078 0.990836
vn -0.135069 0.000078 0.990836
vn -0.135069 0.000078 0.990836
vn 0.962893 0.023593 0.268850
vn 0.995308 0.029693 0.092086
vn 0.995162 0.022968 0.095530
vn -0.256500 0.009087 0.966502
vn 0.086045 0.009455 0.996246
vn -0.087902 0.008815 0.996090
vn -0.087175 0.008834 0.996154
vn -0.087902 0.008815 0.996090
vn 0.086045 0.009455 0.996246
vn 0.086027 0.008812 0.996254
vn -0.087928 0.007881 0.996096
vn -0.256518 0.008445 0.966503
vn -0.256500 0.009087 0.966502
vn -0.087175 0.008834 0.996154
vn -0.087201 0.007900 0.996159
vn -0.087928 0.007881 0.996096
vn 0.086027 0.008812 0.996254
vn -0.256518 0.008445 0.966503
vn -0.087201 0.007900 0.996159
vn -0.007484 0.999905 -0.011556
vn -0.007484 0.999905 -0.011556
vn -0.007484 0.999905 -0.011556
vn -0.007484 0.999905 -0.011556
vn -0.996050 -0.016192 -0.087301
vn -0.996050 -0.016192 -0.087301
vn -0.996050 -0.016192 -0.087301
vn -0.996050 -0.016192 -0.087301
vn -0.000829 -0.999941 0.010830
vn -0.000829 -0.999941 0.010830
vn -0.000829 -0.999941 0.010830
vn -0.000829 -0.999941 0.010830
vn 0.993166 0.007559 0.116462
vn 0.993166 0.007559 0.116462
vn 0.993166 0.007559 0.116462
vn 0.993166 0.007559 0.116462
vn 0.995704 0.009084 0.092143
vn 0.995932 0.008978 0.089660
vn 0.996403 0.009193 -0.084238
vn 0.965809 0.009682 0.259072
vn 0.995932 0.008978 0.089660
vn 0.996034 -0.004373 0.088868
vn 0.996841 -0.004970 -0.079266
vn 0.996403 0.009193 -0.084238
vn 0.997080 0.010245 0.075672
vn 0.997080 0.010245 0.075672
vn 0.997080 0.010245 0.075672
vn 0.997080 0.010245 0.075672
vn -0.087480 0.010681 0.996109
vn -0.087480 0.010681 0.996109
vn -0.087480 0.010681 0.996109
vn -0.087480 0.010681 0.996109
s off
g polySurface18 WindMill
usemtl windmill_blinn1SG2
f 1/1/1 2/2/2 3/3/3 4/4/4
f 1/1/5 4/4/6 5/5/7 6/6/8
f 7/7/9 8/8/10 9/9/11 10/10/12
f 7/11/13 11/12/14 12/13/15 8/14/16
f 13/15/17 14/16/18 15/17/19 16/18/20
f 15/17/21 14/16/22 17/19/23 18/20/24
f 17/19/25 19/21/26 20/22/27 18/20/28
f 20/22/29 19/21/30 21/23/31 22/24/32
f 23/25/33 22/24/34 21/23/35 24/26/36
f 25/27/37 26/28/38 27/29/39 28/30/40
f 29/31/41 28/30/42 27/29/43 30/32/44
f 31/33/45 28/30/46 29/31/47 32/34/48
f 33/35/49 28/30/50 31/33/51 34/36/52
f 35/37/53 28/30/54 33/35/55 36/38/56
f 25/27/57 28/30/58 35/37/59 37/39/60
f 27/40/61 26/41/62 38/42/63 39/43/64
f 27/40/65 39/43/66 40/44/67 30/45/68
f 29/46/69 30/45/70 40/44/71 41/47/72
f 29/48/73 41/49/74 42/50/75 32/51/76
f 31/52/77 32/51/78 42/50/79 43/53/80
f 31/52/81 43/53/82 44/54/83 34/55/84
f 33/56/85 34/55/86 44/54/87 45/57/88
f 33/56/89 45/57/90 46/58/91 36/59/92
f 35/60/93 36/59/94 46/58/95 47/61/96
f 35/60/97 47/61/98 48/62/99 37/63/100
f 25/64/101 37/63/102 48/62/103 49/65/104
f 25/64/105 49/65/106 38/42/107 26/41/108
f 38/66/109 23/67/110 2/68/111 39/69/112
f 38/66/113 49/70/114 22/71/115 23/67/116
f 48/72/117 20/73/118 22/71/119 49/70/120
f 48/72/121 47/74/122 18/75/123 20/73/124
f 46/76/125 15/77/126 18/75/127 47/74/128
f 46/76/129 45/78/130 16/79/131 15/77/132
f 44/80/133 43/81/134 8/82/135 12/83/136
f 42/84/137 9/85/138 8/82/139 43/81/140
f 42/84/141 41/86/142 6/87/143 9/85/144
f 40/88/145 1/89/146 6/87/147 41/86/148
f 40/88/149 39/69/150 2/68/151 1/89/152
f 44/80/153 12/83/154 16/79/155 45/78/156
f 13/15/157 16/18/158 12/13/159 11/12/160
f 50/90/161 10/10/162 51/91/163
f 5/5/164 52/92/165 53/93/166 6/6/167
f 54/94/168 50/95/169 51/96/170 52/97/171
f 55/98/172 56/99/173 57/100/174 53/101/175
f 52/92/176 58/102/177 55/103/178 53/93/179
f 58/104/180 52/97/181 51/96/182 59/105/183
f 56/106/184 59/107/185 51/91/186 57/108/187
f 5/5/188 54/109/189 52/92/190
f 24/26/191 3/3/192 60/110/193 61/111/194
f 60/110/195 3/3/196 2/2/197 62/112/198
f 23/25/199 24/26/200 61/111/201 63/113/202
f 62/112/203 2/2/204 23/25/205 63/113/206
f 60/114/207 64/115/208 65/116/209 61/117/210
f 66/118/211 64/119/212 60/110/213 62/112/214
f 62/120/215 63/121/216 67/122/217 66/123/218
f 65/124/219 67/125/220 63/113/221 61/111/222
f 53/93/223 57/108/224 9/9/225 6/6/226
f 57/108/227 51/91/228 10/10/229 9/9/230
f 56/126/231 55/127/232 58/128/233 59/129/234
f 66/130/235 67/131/236 65/132/237 64/133/238
