# This file uses centimeters as units for non-parametric coordinates.

mtllib windmill_body.mtl
g default
v -18.247717 35.126009 -24.633818
v -18.247724 35.126009 21.560345
v -18.310516 92.007899 21.405085
v -18.310509 92.007899 -24.478551
v 0.014602 112.336819 21.405082
v 18.339723 92.007899 21.405093
v 18.276927 35.126009 21.560356
v 18.276934 35.126009 -24.633809
v 18.339731 92.007899 -24.478542
v -19.509622 90.460983 -25.792815
v -19.509636 90.460983 22.719320
v -19.509636 91.504538 22.719346
v -19.509622 91.504538 -25.792815
v 19.538837 91.504538 22.719353
v 19.538837 90.460983 22.719353
v 19.538854 90.460983 -25.792809
v 19.538854 91.504538 -25.792809
v 0.014597 112.336806 -25.792815
v 0.014609 113.380380 -25.792815
v 0.014609 112.336819 -24.478548
v 0.014602 113.380380 22.719346
v 0.014602 112.336819 22.719346
vt 0.579430 0.005116
vt 0.786357 0.005169
vt 0.785661 0.284613
vt 0.579768 0.284582
vt 0.100437 0.383934
vt 0.009483 0.283401
vt 0.191643 0.283521
vt 0.191169 0.004074
vt 0.398143 0.004832
vt 0.397540 0.284265
vt 0.387139 0.797101
vt 0.387139 0.582309
vt 0.392318 0.582309
vt 0.392318 0.797101
vt 0.694455 0.580936
vt 0.699646 0.580936
vt 0.699646 0.796247
vt 0.694455 0.796247
vt 0.691899 0.799864
vt 0.691899 0.803669
vt 0.543903 0.803669
vt 0.543903 0.799864
vt 0.406395 0.810739
vt 0.397488 0.805202
vt 0.545054 0.805202
vt 0.544946 0.810887
vt 0.544240 0.797392
vt 0.396952 0.797392
vt 0.396952 0.579978
vt 0.544240 0.579978
vt 0.544481 0.572188
vt 0.695972 0.571354
vt 0.692015 0.577123
vt 0.544163 0.577956
vt 0.684390 0.562780
vt 0.695949 0.569493
vt 0.543851 0.570392
vt 0.543851 0.562928
vt 0.396947 0.577123
vt 0.392989 0.571354
vt 0.691528 0.579978
vt 0.691528 0.797392
vt 0.397735 0.803669
vt 0.397735 0.799864
vt 0.692513 0.805354
vt 0.683670 0.810887
vt 0.371570 0.789158
vt 0.371570 0.585378
vt 0.383069 0.579981
vt 0.383069 0.795905
vt 0.714028 0.586572
vt 0.714028 0.790149
vt 0.703157 0.795544
vt 0.703157 0.581180
vt 0.402372 0.562614
vt 0.393244 0.570078
vt 0.387410 0.441079
vt 0.199295 0.441079
vt 0.199295 0.293454
vt 0.387410 0.293454
vt 0.009788 0.004014
vt 0.488429 0.384304
vn -0.999999 -0.001104 0.000000
vn -0.999999 -0.001104 0.000000
vn -0.999999 -0.001104 0.000000
vn -0.999999 -0.001104 0.000000
vn 0.000000 0.000000 1.000000
vn 0.000000 0.000000 1.000000
vn 0.000000 0.000000 1.000000
vn 0.999999 -0.001104 0.000000
vn 0.999999 -0.001104 0.000000
vn 0.999999 -0.001104 0.000000
vn 0.999999 -0.001104 0.000000
vn -1.000000 0.000000 -0.000000
vn -1.000000 0.000000 -0.000000
vn -1.000000 0.000000 -0.000000
vn -1.000000 0.000000 -0.000000
vn 1.000000 0.000000 0.000000
vn 1.000000 0.000000 0.000000
vn 1.000000 0.000000 0.000000
vn 1.000000 0.000000 0.000000
vn 0.000000 0.000000 -1.000000
vn 0.000000 0.000000 -1.000000
vn 0.000000 0.000000 -1.000000
vn 0.000000 0.000000 -1.000000
vn 0.743421 -0.666702 0.053224
vn 0.743421 -0.666702 0.053224
vn 0.743421 -0.666702 0.053224
vn 0.743421 -0.666702 0.053224
vn -0.746069 0.665868 -0.000000
vn -0.746069 0.665868 -0.000000
vn -0.746069 0.665868 -0.000000
vn -0.746069 0.665868 -0.000000
vn -0.000002 0.000000 1.000000
vn -0.000002 0.000000 1.000000
vn -0.000002 0.000000 1.000000
vn -0.000002 0.000000 1.000000
vn -0.743421 -0.666702 -0.053224
vn -0.743421 -0.666702 -0.053224
vn -0.743421 -0.666702 -0.053224
vn -0.743421 -0.666702 -0.053224
vn 0.000013 -0.000012 1.000000
vn 0.000013 -0.000012 1.000000
vn 0.000013 -0.000012 1.000000
vn 0.000013 -0.000012 1.000000
vn 0.746069 0.665868 0.000000
vn 0.746069 0.665868 0.000000
vn 0.746069 0.665868 0.000000
vn 0.746069 0.665868 0.000000
vn -0.000002 0.000000 -1.000000
vn -0.000002 0.000000 -1.000000
vn -0.000002 0.000000 -1.000000
vn -0.000002 0.000000 -1.000000
vn -0.743421 -0.666703 0.053224
vn -0.743421 -0.666703 0.053224
vn -0.743421 -0.666703 0.053224
vn -0.743421 -0.666703 0.053224
vn 0.790352 -0.612653 0.000000
vn 0.790352 -0.612653 0.000000
vn 0.790352 -0.612653 0.000000
vn 0.790352 -0.612653 0.000000
vn -0.790351 -0.612654 0.000000
vn -0.790351 -0.612654 0.000000
vn -0.790351 -0.612654 0.000000
vn -0.790351 -0.612654 0.000000
vn 0.743421 -0.666703 -0.053222
vn 0.743421 -0.666703 -0.053222
vn 0.743421 -0.666703 -0.053222
vn 0.743421 -0.666703 -0.053222
vn 0.000000 -1.000000 0.000000
vn 0.000000 -1.000000 0.000000
vn 0.000000 -1.000000 0.000000
vn 0.000000 -1.000000 0.000000
vn 0.000000 0.002730 -0.999996
vn 0.000000 0.002730 -0.999996
vn 0.000000 0.002730 -0.999996
vn 0.000000 0.002730 -0.999996
vn 0.000000 0.002730 0.999996
vn 0.000000 0.002730 0.999996
vn 0.000000 0.002730 0.999996
vn 0.000000 0.002730 0.999996
vn 0.000000 0.000000 -1.000000
vn 0.000000 0.000000 -1.000000
vn 0.000000 0.000000 -1.000000
s off
g polySurface1 WindMill
usemtl windmill_blinn1SG2
f 1/1/1 2/2/2 3/3/3 4/4/4
f 5/5/5 3/6/6 6/7/7
f 6/7/8 7/8/9 8/9/10 9/10/11
f 10/11/12 11/12/13 12/13/14 13/14/15
f 14/15/16 15/16/17 16/17/18 17/18/19
f 17/19/20 16/20/21 18/21/22 19/22/23
f 4/23/24 10/24/25 18/25/26 20/26/27
f 19/27/28 13/28/29 12/29/30 21/30/31
f 22/31/32 15/32/33 14/33/34 21/34/35
f 6/35/36 15/36/37 22/37/38 5/38/39
f 22/31/40 21/34/41 12/39/42 11/40/43
f 14/41/44 17/42/45 19/27/46 21/30/47
f 18/21/48 10/43/49 13/44/50 19/22/51
f 18/25/52 16/45/53 9/46/54 20/26/55
f 4/47/56 3/48/57 11/49/58 10/50/59
f 6/51/60 9/52/61 16/53/62 15/54/63
f 3/55/64 5/38/65 22/37/66 11/56/67
f 8/57/68 7/58/69 2/59/70 1/60/71
f 1/1/72 4/4/73 9/10/74 8/9/75
f 2/61/76 7/8/77 6/7/78 3/6/79
f 4/4/80 20/62/81 9/10/82
